<svg width="512" height="512" viewBox="0 0 512 512" fill="none" xmlns="http://www.w3.org/2000/svg">
  <path fill-rule="evenodd" clip-rule="evenodd"
    d="M256 512C397.385 512 512 397.385 512 256C512 114.615 397.385 0 256 0C114.615 0 0 114.615 0 256C0 397.385 114.615 512 256 512ZM363 147C400 184 400 248 363 285C326 322 262 322 225 285C188 248 188 184 225 147C262 110 326 110 363 147ZM149 365C186 402 250 402 287 365C324 328 324 264 287 227C250 190 186 190 149 227C112 264 112 328 149 365Z"
    fill="black"/>
</svg>
